{"accessors" : [{"bufferView" : 0, "byteOffset" : 0, "componentType" : 5125, "count" : 109968, "type" : "SCALAR", "max" : [109967], "min" : [0]}, {"bufferView" : 1, "byteOffset" : 0, "componentType" : 5126, "count" : 109968, "type" : "VEC3", "max" : [76.5489501953125, 78.81893920898438, 30.67401695251465], "min" : [-76.54644775390625, -29.78473472595215, -0.102447509765625]}, {"bufferView" : 1, "byteOffset" : 12, "componentType" : 5126, "count" : 109968, "type" : "VEC3", "max" : [0.9999991655349731, 0.9999745488166809, 1.000002384185791], "min" : [-0.9999991655349731, -0.9995542168617249, -0.9999690055847168]}, {"bufferView" : 1, "byteOffset" : 24, "componentType" : 5126, "count" : 109968, "type" : "VEC2", "max" : [0.996056318283081, -0.001768946647644043], "min" : [0.004265030845999718, -0.9960145950317383]}, {"bufferView" : 1, "byteOffset" : 32, "componentType" : 5126, "count" : 109968, "type" : "VEC2", "max" : [0.9986951947212219, -0.0019907020032405853], "min" : [0.0036647357046604156, -0.9977134466171265]}, {"bufferView" : 0, "byteOffset" : 439872, "componentType" : 5123, "count" : 678, "type" : "SCALAR", "max" : [677], "min" : [0]}, {"bufferView" : 4, "byteOffset" : 0, "componentType" : 5126, "count" : 678, "type" : "VEC3", "max" : [72.1740493774414, 11.914284706115723, 20.566387176513672], "min" : [-72.17154693603516, -21.954652786254883, 6.470712184906006]}, {"bufferView" : 4, "byteOffset" : 12, "componentType" : 5126, "count" : 678, "type" : "VEC3", "max" : [0.8797052502632141, 0.927882730960846, 0.9999269843101501], "min" : [-0.8797052502632141, -0.4899565875530243, -0.9995668530464172]}, {"bufferView" : 4, "byteOffset" : 24, "componentType" : 5126, "count" : 678, "type" : "VEC2", "max" : [0.9709564447402954, -0.5544655323028564], "min" : [0.3866841495037079, -0.981158435344696]}, {"bufferView" : 4, "byteOffset" : 32, "componentType" : 5126, "count" : 678, "type" : "VEC2", "max" : [0.979636013507843, -0.026463931426405907], "min" : [0.6266828179359436, -0.8884814381599426]}, {"bufferView" : 0, "byteOffset" : 441228, "componentType" : 5123, "count" : 3312, "type" : "SCALAR", "max" : [3311], "min" : [0]}, {"bufferView" : 7, "byteOffset" : 0, "componentType" : 5126, "count" : 3312, "type" : "VEC3", "max" : [0.9488359689712524, -15.83171272277832, 27.155445098876953], "min" : [-0.9463387727737427, -16.139318466186523, 26.712364196777344]}, {"bufferView" : 7, "byteOffset" : 12, "componentType" : 5126, "count" : 3312, "type" : "VEC3", "max" : [0.9996183514595032, 0.15482616424560547, 0.998292863368988], "min" : [-0.9996183514595032, -0.994799017906189, -0.9991143345832825]}, {"bufferView" : 7, "byteOffset" : 24, "componentType" : 5126, "count" : 3312, "type" : "VEC2", "max" : [0.542178213596344, -0.01321499329060316], "min" : [0.36766257882118225, -0.18765638768672943]}, {"bufferView" : 7, "byteOffset" : 32, "componentType" : 5126, "count" : 3312, "type" : "VEC2", "max" : [0.34178462624549866, -0.3901989758014679], "min" : [0.14927297830581665, -0.4720635712146759]}], "asset" : {"generator" : "Aspose.3D 20.9.1", "version" : "2.0"}, "buffers" : [{"uri" : "buffer.bin", "byteLength" : 5006212}], "bufferViews" : [{"buffer" : 0, "byteOffset" : 0, "byteLength" : 447852, "target" : 34963}, {"buffer" : 0, "byteOffset" : 447856, "byteLength" : 4398720, "byteStride" : 40, "target" : 34962}, {"buffer" : 0, "byteOffset" : 4846580, "byteLength" : 0}, {"buffer" : 0, "byteOffset" : 4846584, "byteLength" : 0}, {"buffer" : 0, "byteOffset" : 4846588, "byteLength" : 27120, "byteStride" : 40, "target" : 34962}, {"buffer" : 0, "byteOffset" : 4873712, "byteLength" : 0}, {"buffer" : 0, "byteOffset" : 4873716, "byteLength" : 0}, {"buffer" : 0, "byteOffset" : 4873720, "byteLength" : 132480, "byteStride" : 40, "target" : 34962}, {"buffer" : 0, "byteOffset" : 5006204, "byteLength" : 0}, {"buffer" : 0, "byteOffset" : 5006208, "byteLength" : 0}], "images" : [{"mimeType" : "text/plain", "bufferView" : 2}, {"mimeType" : "text/plain", "bufferView" : 3}, {"mimeType" : "text/plain", "bufferView" : 5}, {"mimeType" : "text/plain", "bufferView" : 6}, {"mimeType" : "text/plain", "bufferView" : 8}, {"mimeType" : "text/plain", "bufferView" : 9}], "materials" : [{"pbrMetallicRoughness" : {"baseColorFactor" : [0, 0, 0, 1], "baseColorTexture" : {"index" : 1, "texCoord" : 0}, "metallicFactor" : 0, "roughnessFactor" : 0}, "normalTexture" : {"index" : 0, "texCoord" : 0, "scale" : 1}, "emissiveFactor" : [0, 0, 0], "alphaMode" : "OPAQUE", "doubleSided" : false}, {"pbrMetallicRoughness" : {"baseColorFactor" : [0, 0, 0, 1], "baseColorTexture" : {"index" : 3, "texCoord" : 0}, "metallicFactor" : 0, "roughnessFactor" : 0}, "normalTexture" : {"index" : 2, "texCoord" : 0, "scale" : 1}, "emissiveFactor" : [0, 0, 0], "alphaMode" : "OPAQUE", "doubleSided" : false}, {"pbrMetallicRoughness" : {"baseColorFactor" : [0, 0, 0, 1], "baseColorTexture" : {"index" : 5, "texCoord" : 0}, "metallicFactor" : 0, "roughnessFactor" : 0}, "normalTexture" : {"index" : 4, "texCoord" : 0, "scale" : 1}, "emissiveFactor" : [0, 0, 0], "alphaMode" : "OPAQUE", "doubleSided" : false}], "meshes" : [{"primitives" : [{"attributes" : {"POSITION" : 1, "NORMAL" : 2, "TEXCOORD_0" : 3, "TEXCOORD_1" : 4}, "indices" : 0, "material" : 0, "mode" : 4}, {"attributes" : {"POSITION" : 6, "NORMAL" : 7, "TEXCOORD_0" : 8, "TEXCOORD_1" : 9}, "indices" : 5, "material" : 1, "mode" : 4}, {"attributes" : {"POSITION" : 11, "NORMAL" : 12, "TEXCOORD_0" : 13, "TEXCOORD_1" : 14}, "indices" : 10, "material" : 2, "mode" : 4}]}], "nodes" : [{"matrix" : [1, -1.5775533856114378E-30, -2.6986934649098725E-26, 0, -2.698693464935538E-26, -1.6292067961387602E-07, -0.9999999999999868, 0, 1.5731566558774709E-30, 0.9999999999999868, -1.6292067961387602E-07, 0, 3.661175444688317E-25, -1.3433698597964394E-14, 6.661338147750939E-16, 1], "mesh" : 0, "name" : "Cube"}], "samplers" : [{"magFilter" : 9729, "minFilter" : 9729, "wrapS" : 10497, "wrapT" : 10497}, {"magFilter" : 9729, "minFilter" : 9729, "wrapS" : 10497, "wrapT" : 10497}, {"magFilter" : 9729, "minFilter" : 9729, "wrapS" : 10497, "wrapT" : 10497}, {"magFilter" : 9729, "minFilter" : 9729, "wrapS" : 10497, "wrapT" : 10497}, {"magFilter" : 9729, "minFilter" : 9729, "wrapS" : 10497, "wrapT" : 10497}, {"magFilter" : 9729, "minFilter" : 9729, "wrapS" : 10497, "wrapT" : 10497}], "scene" : 0, "scenes" : [{"nodes" : [0]}], "textures" : [{"sampler" : 0, "source" : 0}, {"sampler" : 1, "source" : 1}, {"sampler" : 2, "source" : 2}, {"sampler" : 3, "source" : 3}, {"sampler" : 4, "source" : 4}, {"sampler" : 5, "source" : 5}]}